<svg width="126" height="174" viewBox="0 0 126 174" fill="none" xmlns="http://www.w3.org/2000/svg">
<g id="E-Cell logo">
<path id="Path 634" d="M52.7222 73.8052C53.2485 77.526 55.0734 80.939 57.8723 83.437C59.2632 84.4959 60.8486 85.2692 62.5378 85.7127C64.227 86.1562 65.9867 86.2612 67.7164 86.0217C71.9288 85.6949 76.117 85.107 80.257 84.2614C85.4003 83.3554 90.2097 81.0899 94.1896 77.6984C96.3741 75.8681 98.0355 73.4891 99.004 70.8042C99.9725 68.1194 100.214 65.2248 99.7024 62.416C97.8248 51.1148 90.8585 43.5483 81.1051 38.3231C75.8028 35.5386 69.8832 34.1487 63.8998 34.2832C56.1506 34.2205 48.5838 36.6419 42.3022 41.1946C36.0205 45.7473 31.3522 52.1934 28.9776 59.5936C27.502 64.499 27.0469 69.6564 27.6405 74.7456C28.2341 79.8348 29.8639 84.7474 32.4286 89.1785C34.8209 93.5529 37.7601 97.6251 40.3951 101.879C42.9986 105.7 44.4403 110.197 44.5451 114.823C44.7439 116.624 45.5698 118.297 46.8772 119.548C48.1846 120.798 49.8899 121.546 51.6927 121.659H76.0748C77.8327 121.651 79.5351 121.041 80.901 119.931C82.267 118.821 83.2148 117.277 83.588 115.554C83.6173 115.372 83.6787 115.158 83.708 114.885H88.8259C88.782 116.523 88.4016 118.135 87.7087 119.619C87.0158 121.103 86.0252 122.428 84.7988 123.51C84.1905 124.121 83.4944 124.605 82.8306 125.183C81.4391 126.367 79.6557 126.984 77.8325 126.914C68.351 126.823 58.8403 126.884 49.3589 126.852C48.4288 126.818 47.5228 126.547 46.7268 126.063C43.6859 124.389 41.311 121.718 40.0003 118.497C39.6281 117.56 39.4127 116.569 39.3627 115.563C39.2384 111.131 37.734 106.85 35.0607 103.32C31.083 98.0876 27.7767 92.3746 25.2195 86.3151C20.859 74.0399 20.6777 61.8263 27.2492 50.3109C30.5355 44.3205 35.2705 39.2552 41.0188 35.5809C46.7671 31.9066 53.344 29.7413 60.1447 29.284C65.8009 28.6412 71.5285 29.1755 76.9696 30.8534C82.4108 32.5314 87.4485 35.3169 91.7681 39.0361C98.6083 44.4525 103.274 52.16 104.911 60.7466C105.503 63.9165 105.414 67.1764 104.652 70.3093C103.889 73.4422 102.47 76.3762 100.489 78.9159C96.1474 84.4133 90.5744 88.8059 84.2227 91.7369C79.333 94.4971 73.8904 96.127 68.2925 96.5073C62.862 96.8652 57.4111 96.767 51.9969 96.2139C47.9908 95.5461 44.3411 93.5013 41.6732 90.4299C39.0053 87.3585 37.4854 83.4518 37.374 79.3795C36.8158 72.5804 38.1241 65.7578 41.1572 59.6517C44.1902 53.5457 48.8321 48.3895 54.5793 44.7424C56.9469 43.0374 59.6379 41.8376 62.486 41.2169C65.3341 40.5962 68.2787 40.5679 71.1381 41.1338C72.8606 41.3218 74.5134 41.92 75.9588 42.8785C77.4042 43.8369 78.6005 45.1279 79.4479 46.644C80.2954 48.16 80.7696 49.8572 80.8309 51.5943C80.8923 53.3313 80.5391 55.058 79.8007 56.6304C77.8917 61.1216 74.3303 64.7017 69.8572 66.626C65.0404 69.0259 59.9839 70.8801 55.015 72.9749C54.2661 73.2926 53.5007 73.5698 52.7222 73.8052ZM52.1168 68.8822C54.9087 68.3017 57.5799 67.2428 60.0131 65.7518C62.685 64.3898 64.8878 62.2545 66.3363 59.6224C67.7849 56.9902 68.4123 53.9825 68.1376 50.9886C68.2157 50.0907 68.0237 49.19 67.5863 48.4027C67.1489 47.6154 66.4863 46.9778 65.684 46.5722C64.8817 46.1666 63.9765 46.0117 63.0855 46.1274C62.1946 46.2432 61.3586 46.6243 60.6858 47.2215C60.1661 47.535 59.6877 47.9125 59.2615 48.3452C53.6317 53.9958 52.3273 61.1661 52.1168 68.8822Z" fill="#F5F2FF"/>
<path id="Path 635" d="M46.0629 135.519C45.7727 135.667 45.4535 135.749 45.1281 135.758C44.8027 135.768 44.4793 135.705 44.181 135.574C43.8827 135.444 43.6169 135.248 43.4028 135.002C43.1886 134.756 43.0314 134.466 42.9424 134.152C42.079 132.933 40.7731 132.104 39.306 131.842C37.8388 131.581 36.3279 131.907 35.0987 132.752C31.4021 135.519 31.8817 142.871 34.2214 145.368C34.8669 146.009 35.6616 146.478 36.5335 146.732C37.4055 146.987 38.3269 147.019 39.2144 146.826C40.1018 146.632 40.9271 146.22 41.6154 145.626C42.3037 145.032 42.8332 144.274 43.1559 143.423C43.7613 141.663 44.7322 141.478 46.215 141.874C46.1629 143.72 45.4526 145.486 44.213 146.852C42.9734 148.218 41.2868 149.092 39.4593 149.317C31.3114 150.077 29.2525 143.543 29.4952 138.38C29.5294 137.777 29.6106 137.177 29.738 136.587C29.9173 135.065 30.5174 133.624 31.4704 132.426C32.4234 131.229 33.6913 130.322 35.1309 129.81C36.6065 129.189 38.2239 128.989 39.8057 129.23C41.3874 129.471 42.8724 130.145 44.0976 131.177C44.7162 131.717 45.2118 132.384 45.5509 133.134C45.89 133.883 46.0646 134.696 46.0629 135.519Z" fill="#F5F2FF"/>
<path id="Path 636" d="M64.7142 130.106H75.7398C77.4682 130.106 78.2549 130.775 78.3164 132.16C78.3447 132.478 78.3015 132.799 78.19 133.098C78.0785 133.398 77.9014 133.668 77.6719 133.89C77.4424 134.112 77.1663 134.279 76.8638 134.38C76.5613 134.481 76.2402 134.512 75.9241 134.472C71.9554 134.562 67.9575 134.533 63.9889 134.533C60.3537 134.533 56.7506 134.501 53.1154 134.472C51.9953 134.472 51.0243 133.955 50.9658 132.77C50.9726 131.953 51.2493 131.162 51.7525 130.52C52.0245 130.156 52.8434 130.094 53.4195 130.094L64.7142 130.106Z" fill="#F5F2FF"/>
<path id="Path 637" d="M22.1611 38.3433C22.1318 40.0743 21.313 41.2772 19.8887 41.3505C18.654 41.4341 17.4176 41.2156 16.2857 40.7139C13.9891 39.5611 11.7546 38.2881 9.59132 36.8999C8.7812 36.3206 8.09173 35.588 7.56167 34.7435C7.17268 34.2946 6.97137 33.7124 6.9997 33.1183C7.02803 32.5242 7.28382 31.964 7.71375 31.5544C8.61928 30.9122 9.67121 30.5086 10.7728 30.3808C11.4846 30.36 12.1848 30.5654 12.7732 30.9676C15.227 32.3348 17.6807 33.7313 20.1022 35.2217C20.6802 35.5253 21.1722 35.9708 21.5322 36.5166C21.8922 37.0625 22.1086 37.6909 22.1611 38.3433Z" fill="#F5F2FF"/>
<path id="Path 638" d="M106.753 41.8722C105.844 41.2649 104.51 40.8395 104.18 39.9887C103.993 38.8511 104.075 37.6853 104.419 36.5854C104.455 36.4362 104.522 36.2964 104.616 36.1758C104.711 36.0552 104.83 35.9567 104.966 35.8872C108.239 34.033 111.447 32.0878 114.81 30.4478C115.449 30.1687 116.169 30.1421 116.827 30.3733C117.484 30.6046 118.03 31.0766 118.355 31.6947C118.736 32.2468 118.909 32.9168 118.842 33.585C118.776 34.2531 118.474 34.8757 117.992 35.3415C115.027 38.0576 111.545 40.1452 107.756 41.4791C107.508 41.5322 107.253 41.553 106.999 41.5407C106.894 41.6321 106.81 41.7452 106.753 41.8722Z" fill="#F5F2FF"/>
<path id="Path 639" d="M85.2557 19.4756C85.4138 18.6914 85.657 17.927 85.981 17.196C87.2532 14.8489 88.6131 12.5781 89.9497 10.2369C90.0111 10.1459 90.0403 10.055 90.1017 9.96403C90.5623 9.17626 91.2894 8.58044 92.1508 8.28487C93.0121 7.98929 93.9506 8.0136 94.7957 8.35336C95.1656 8.57677 95.488 8.8711 95.7445 9.21953C96.0009 9.56797 96.1865 9.96368 96.2905 10.3841C96.3945 10.8044 96.415 11.2413 96.3507 11.6696C96.2864 12.0979 96.1386 12.5093 95.9158 12.8803C94.5438 15.7372 92.9539 18.4837 91.1604 21.0951C90.9001 21.5635 90.5248 21.9574 90.0701 22.2395C89.6154 22.5216 89.0964 22.6825 88.5623 22.7069C88.0283 22.7313 87.4968 22.6184 87.0185 22.3789C86.5401 22.1394 86.1306 21.7814 85.8289 21.3386C85.5663 20.7421 85.374 20.1168 85.2557 19.4756Z" fill="#F5F2FF"/>
<path id="Path 640" d="M37.8831 22.634C37.1202 22.6778 36.3611 22.4971 35.6992 22.114C35.0373 21.7309 34.5013 21.1621 34.1572 20.4776C32.7944 18.2303 31.5251 15.9507 30.25 13.6418C30.0033 13.2077 29.8294 12.7359 29.7353 12.2452C29.4944 11.5423 29.4981 10.7782 29.7455 10.0776C29.993 9.37702 30.4698 8.78117 31.0981 8.38723C31.785 8.0387 32.5744 7.95128 33.3205 8.1411C34.0667 8.33092 34.7191 8.78516 35.1574 9.41994C36.5266 11.3538 37.771 13.3735 38.8833 15.4666C39.5379 16.59 40.0665 17.7825 40.4597 19.0224C40.5918 19.4334 40.6261 19.8696 40.5598 20.2963C40.4935 20.7229 40.3285 21.128 40.078 21.4791C39.8275 21.8302 39.4985 22.1176 39.1173 22.3182C38.7362 22.5187 38.3135 22.6269 37.8831 22.634Z" fill="#F5F2FF"/>
<path id="Path 641" d="M64.4153 141.508H56.981C55.314 141.508 54.5887 140.897 54.5273 139.533C54.4666 139.217 54.4809 138.891 54.569 138.581C54.6572 138.271 54.8167 137.987 55.0348 137.75C55.2529 137.514 55.5233 137.332 55.8243 137.22C56.1253 137.107 56.4485 137.068 56.7675 137.104C61.947 137.042 67.1556 137.042 72.3672 137.075C72.9776 137.102 73.5573 137.351 73.9977 137.776C74.438 138.201 74.7089 138.773 74.7595 139.384C74.7358 139.7 74.6475 140.009 74.5001 140.29C74.3528 140.572 74.1495 140.82 73.9028 141.019C73.6561 141.219 73.3712 141.365 73.0659 141.45C72.7605 141.534 72.4411 141.555 72.1274 141.511L64.4153 141.508Z" fill="#F5F2FF"/>
<path id="Path 642" d="M118.606 60.8926C119.878 60.8926 121.118 60.8633 122.39 60.8926C123.227 60.8426 124.053 61.0983 124.716 61.6123C125.379 62.1264 125.834 62.864 125.996 63.6886C126.016 64.0746 125.956 64.4604 125.821 64.8224C125.686 65.1844 125.479 65.515 125.212 65.7938C124.946 66.0727 124.625 66.2939 124.27 66.444C123.915 66.594 123.533 66.6697 123.148 66.6665C120.102 66.9041 117.042 66.8835 114 66.6048C113.627 66.5907 113.262 66.4985 112.927 66.3342C112.593 66.1698 112.296 65.937 112.056 65.6507C111.817 65.3644 111.639 65.031 111.536 64.6718C111.432 64.3127 111.405 63.9358 111.456 63.5654C111.612 62.8182 112.015 62.1455 112.598 61.655C113.181 61.1646 113.912 60.8847 114.673 60.8604C116 60.8604 117.305 60.8926 118.606 60.8926Z" fill="#F5F2FF"/>
<path id="Path 643" d="M7.28969 60.8829C8.50046 60.8829 9.71415 60.8535 10.9249 60.8829C11.7635 60.8607 12.5833 61.1342 13.2417 61.6558C13.9 62.1774 14.3552 62.914 14.528 63.7375C14.5234 64.5095 14.2156 65.2486 13.6715 65.7945C13.1273 66.3404 12.3906 66.6492 11.621 66.6538C8.62557 66.8763 5.61711 66.8557 2.62501 66.5922C2.24069 66.6035 1.85881 66.5275 1.5079 66.3699C1.15699 66.2123 0.846153 65.9771 0.598635 65.6819C0.351117 65.3868 0.173315 65.0393 0.0785492 64.6655C-0.016217 64.2917 -0.0254907 63.9013 0.0513946 63.5233C0.140757 62.7872 0.500978 62.111 1.06147 61.6275C1.62196 61.1439 2.34228 60.8878 3.08123 60.9093C4.44408 60.8183 5.86835 60.9093 7.29262 60.8799L7.28969 60.8829Z" fill="#F5F2FF"/>
<path id="Path 644" d="M59.8452 7.23207C59.9973 6.05853 60.088 4.22486 60.4506 2.49095C60.5787 1.91383 60.9239 1.40862 61.4143 1.08065C61.9047 0.752686 62.5024 0.627291 63.0827 0.730642C63.6655 0.733959 64.2302 0.933588 64.6864 1.2975C65.1425 1.66142 65.4635 2.16851 65.5978 2.73739C65.805 3.3029 65.9272 3.89615 65.9605 4.4977C65.9312 7.20271 65.9312 9.93706 65.6885 12.6421C65.6323 13.3342 65.3228 13.9809 64.8195 14.4576C64.3162 14.9344 63.6548 15.2073 62.9628 15.2239C62.274 15.2032 61.6158 14.9335 61.1095 14.4645C60.6033 13.9954 60.283 13.3586 60.2079 12.6714C59.9875 10.8664 59.8664 9.05049 59.8452 7.23207Z" fill="#F5F2FF"/>
<path id="Path 645" d="M98.3993 146.575H107.79C107.819 147.302 107.851 147.913 107.913 148.702H95.8169V129.987H98.3905L98.3993 146.575Z" fill="#F5F2FF"/>
<path id="Path 646" d="M93.2815 146.516V148.734H81.3171C81.2414 148.425 81.1906 148.11 81.165 147.792V131.11C81.165 128.892 82.7999 130.23 83.8615 129.805V146.528L93.2815 146.516Z" fill="#F5F2FF"/>
<path id="Path 647" d="M72.1701 170.001C72.714 167.751 73.2609 165.533 73.8078 163.286C74.1383 161.948 74.1705 161.948 75.8345 162.282C75.5421 163.406 75.2496 164.5 74.9864 165.592C74.4015 167.78 73.8955 169.993 73.2609 172.155C73.1381 172.61 72.5327 173.249 72.1701 173.22C71.8841 173.172 71.6137 173.055 71.3817 172.881C71.1497 172.706 70.9627 172.478 70.8365 172.216C70.2018 170.362 69.7456 168.449 69.2016 166.566C69.0817 166.079 68.8682 165.624 68.5962 164.806C67.868 167.446 67.2626 169.729 66.5958 172.005C66.4145 172.674 66.3238 173.343 65.2944 173.343C64.2649 173.343 64.2035 172.645 64.0222 172.005C63.1741 168.778 62.3552 165.595 61.5071 162.324C62.7179 161.737 63.3846 162.051 63.6274 163.359C64.0807 165.577 64.5954 167.76 65.0897 169.952C65.2096 169.952 65.3617 169.981 65.4845 169.981C66.0899 167.734 66.6953 165.486 67.3621 163.268C67.482 162.843 67.7569 162.206 68.0903 162.112C68.877 161.898 69.6345 161.93 69.9064 163.057C70.4504 165.404 71.1494 167.675 71.7548 169.981C71.8922 170.001 72.0313 170.008 72.1701 170.001Z" fill="#F5F2FF"/>
<path id="Path 648" d="M64.3855 148.034C62.6308 148.034 60.876 148.066 59.1213 148.034C58.8199 148.054 58.5175 148.013 58.2324 147.913C57.9472 147.813 57.6852 147.656 57.4618 147.452C57.2385 147.248 57.0585 147 56.9325 146.725C56.8066 146.45 56.7374 146.151 56.729 145.848C56.766 145.235 57.0335 144.659 57.4775 144.236C57.9215 143.813 58.5089 143.574 59.1213 143.569C62.7858 143.54 66.4824 143.54 70.1469 143.569C70.4506 143.558 70.7532 143.611 71.0356 143.724C71.318 143.837 71.574 144.007 71.7875 144.224C72.001 144.441 72.1674 144.7 72.2761 144.984C72.3849 145.269 72.4336 145.573 72.4193 145.878C72.4069 146.181 72.3336 146.479 72.2039 146.753C72.0741 147.027 71.8906 147.272 71.6642 147.473C71.4379 147.675 71.1734 147.828 70.8865 147.924C70.5997 148.021 70.2964 148.058 69.9949 148.034H64.3855Z" fill="#F5F2FF"/>
<path id="Path 649" d="M48.4242 165.653C47.8034 165.374 47.2386 164.983 46.7572 164.5C46.4515 164.101 46.0627 163.774 45.6178 163.541C45.1729 163.308 44.6827 163.175 44.1815 163.152C43.6802 163.129 43.1799 163.216 42.7156 163.407C42.2512 163.597 41.834 163.888 41.493 164.257C40.7949 165.191 40.3952 166.315 40.3467 167.481C40.2981 168.648 40.603 169.802 41.221 170.791C41.6759 171.37 42.2986 171.794 43.0035 172.004C43.7084 172.214 44.4608 172.2 45.1574 171.964C45.8269 171.819 46.4135 171.417 46.7925 170.844C47.1715 170.272 47.313 169.574 47.1871 168.898C43.9701 168.288 43.9701 168.288 44.0666 167.226C45.4002 167.226 46.7631 167.164 48.0967 167.258C48.3052 167.315 48.4969 167.422 48.6553 167.57C48.8137 167.718 48.9341 167.902 49.0062 168.106C49.0968 169.778 49.0354 171.418 49.0354 173.455C48.278 173.091 47.734 172.815 47.2193 172.574C46.5931 173.058 45.8681 173.396 45.0963 173.565C44.3245 173.734 43.525 173.73 42.755 173.553C41.985 173.375 41.2636 173.03 40.6424 172.54C40.0213 172.05 39.5158 171.429 39.1621 170.72C38.7663 169.96 38.526 169.129 38.4551 168.274C38.3842 167.42 38.4843 166.56 38.7494 165.745C39.0145 164.93 39.4393 164.176 39.9988 163.528C40.5584 162.88 41.2414 162.351 42.0077 161.971C42.6491 161.67 43.349 161.515 44.0573 161.517C44.7656 161.519 45.4647 161.678 46.1045 161.982C46.7443 162.287 47.309 162.73 47.7581 163.28C48.2072 163.829 48.5295 164.471 48.702 165.161C48.6214 165.331 48.5285 165.496 48.4242 165.653Z" fill="#F5F2FF"/>
<path id="Path 650" d="M96.3106 173.216H94.6143C94.6143 171.911 94.5851 170.634 94.6143 169.387C94.6757 168.384 94.2517 167.991 93.2836 168.111H93.1316C89.1015 168.02 89.1307 168.02 88.9816 172.031C88.9523 172.456 88.4669 172.882 88.1949 173.307C87.9024 172.914 87.3468 172.489 87.3468 172.092C87.2853 168.809 87.3175 165.529 87.3175 162.308C88.5283 161.853 89.0138 162.065 89.043 163.25C89.1951 166.653 89.2243 166.653 92.6168 166.653H94.6172C94.6172 165.5 94.6494 164.497 94.6172 163.493C94.5587 162.279 95.012 161.792 96.3135 162.217L96.3106 173.216Z" fill="#F5F2FF"/>
<path id="Path 651" d="M58.4486 162.124H60.3584C60.2063 165.098 60.2356 168.018 59.8144 170.905C59.522 173.061 57.1823 174.003 54.3016 173.607C53.4141 173.492 52.6017 173.047 52.0242 172.362C51.4467 171.676 51.1459 170.798 51.1811 169.901C51.1518 167.316 51.1811 164.767 51.1811 162.124H52.9738C52.9738 164.614 52.9446 167.076 52.9738 169.534C52.9508 170.018 53.0645 170.497 53.3019 170.918C53.5393 171.339 53.8907 171.684 54.3154 171.913C54.74 172.142 55.2207 172.246 55.7016 172.212C56.1826 172.179 56.6442 172.009 57.0331 171.723C57.8425 170.954 58.3297 169.905 58.396 168.789C58.5978 166.63 58.4486 164.441 58.4486 162.124Z" fill="#F5F2FF"/>
<path id="Path 652" d="M86.1361 173.068C84.7119 173.584 84.0889 173.159 83.8345 171.894C83.6239 170.829 83.1999 169.89 81.7464 170.072C80.3806 170.225 78.7165 169.524 78.3539 171.742C78.1404 172.895 77.6286 173.778 76.0493 173.109C77.3537 169.708 78.6259 166.273 79.9887 162.87C80.1237 162.666 80.3024 162.494 80.5119 162.368C80.7214 162.242 80.9563 162.165 81.1995 162.142C81.4286 162.146 81.6532 162.207 81.8536 162.318C82.0539 162.43 82.224 162.589 82.3488 162.782C83.6854 166.17 84.8961 169.603 86.1361 173.068ZM79.5646 168.479H82.6852C82.1704 167.05 81.7464 165.839 81.2901 164.651C81.1782 164.644 81.0659 164.654 80.9567 164.68C80.5034 165.894 80.0501 167.083 79.5646 168.479Z" fill="#F5F2FF"/>
<path id="Path 653" d="M107.669 173.073C106.207 173.59 105.642 173.135 105.367 171.95C105.215 171.31 104.82 170.31 104.396 170.248C103.166 170.006 101.901 170.006 100.67 170.248C100.276 170.339 99.9451 171.372 99.793 172.041C99.5005 173.255 98.7899 173.56 97.5791 173.103C98.8835 169.641 100.185 166.208 101.518 162.802C101.641 162.609 101.805 162.446 101.999 162.325C102.193 162.204 102.412 162.128 102.639 162.104C102.869 162.093 103.099 162.137 103.31 162.232C103.52 162.327 103.705 162.471 103.849 162.652C105.157 166.085 106.367 169.547 107.669 173.073ZM104.241 168.587C103.694 167.121 103.212 165.947 102.756 164.729C102.634 164.725 102.512 164.735 102.393 164.759C101.969 165.973 101.545 167.191 101.059 168.587H104.241Z" fill="#F5F2FF"/>
<path id="Path 654" d="M33.4015 162.034C33.9162 163.249 33.3401 163.463 32.4335 163.501C29.9184 163.592 29.9184 163.624 29.9184 166.141C29.9184 168.057 29.8569 169.97 29.9476 171.915C30.009 173.192 29.5235 173.555 28.1929 173.089C28.1929 170.569 28.1315 167.984 28.2221 165.432C28.2835 164.035 27.9501 163.398 26.406 163.457C25.7392 163.486 24.4962 162.97 24.4962 162.759C24.5869 161.45 25.707 162.09 26.3738 162.061C28.7076 162.002 31.0677 162.034 33.4015 162.034Z" fill="#F5F2FF"/>
<path id="Path 655" d="M113.333 173.128C111.818 173.583 111.485 173.005 111.517 171.819C111.578 169.51 111.485 167.172 111.546 164.863C111.578 163.769 111.154 163.396 110.122 163.496C109.577 163.552 109.027 163.531 108.487 163.434C108.346 163.38 108.222 163.289 108.126 163.172C108.03 163.055 107.966 162.915 107.94 162.766C107.94 162.551 108.306 162.129 108.525 162.129C111.189 162.098 113.854 162.098 116.521 162.129C116.702 162.129 117.068 162.493 117.036 162.675C117.011 162.832 116.955 162.982 116.871 163.118C116.788 163.253 116.679 163.371 116.55 163.464C116.337 163.616 115.965 163.525 115.673 163.558C113.333 163.649 113.333 163.649 113.333 166.078V173.128Z" fill="#F5F2FF"/>
<path id="Path 656" d="M21.3153 162.124H22.8595V173.214C22.3448 173.243 21.8914 173.275 21.3153 173.304V162.124Z" fill="#F5F2FF"/>
<path id="Path 657" d="M120.149 173.218H118.604V162.187C119.09 162.158 119.575 162.096 120.149 162.035V173.218Z" fill="#F5F2FF"/>
<path id="Path 658" d="M16.9519 162.124H18.7388V168.32C18.7388 169.69 18.8002 171.057 18.7095 172.392C18.6803 172.685 18.1656 173.002 17.8614 173.304C17.569 173.011 17.0133 172.697 17.0133 172.392C16.9226 169.03 16.9519 165.644 16.9519 162.124Z" fill="#F5F2FF"/>
</g>
</svg>
