<svg width="39" height="39" viewBox="0 0 39 39" fill="none" xmlns="http://www.w3.org/2000/svg">
<g id="icons8-facebook 1" clip-path="url(#clip0_1358_405)">
<path id="Vector" d="M19.3976 0.199707C8.71587 0.199707 0.0554199 8.86016 0.0554199 19.5419C0.0554199 29.2387 7.19912 37.2464 16.5059 38.6455V24.6675H11.7204V19.5838H16.5059V16.2005C16.5059 10.5993 19.2348 8.14127 23.8898 8.14127C26.119 8.14127 27.2988 8.30729 27.8565 8.38144V12.8189H24.6812C22.7051 12.8189 22.0152 14.6934 22.0152 16.8049V19.5838H27.8066L27.0216 24.6675H22.0152V38.6858C31.4558 37.406 38.7397 29.3338 38.7397 19.5419C38.7397 8.86016 30.0793 0.199707 19.3976 0.199707Z" fill="#F5F2FF"/>
</g>
<defs>
<clipPath id="clip0_1358_405">
<rect width="38.4861" height="38.4861" fill="white" transform="translate(0.0754395 0.199219)"/>
</clipPath>
</defs>
</svg>
