<svg width="40" height="39" viewBox="0 0 40 39" fill="none" xmlns="http://www.w3.org/2000/svg">
<g id="icons8-twitterx 1" clip-path="url(#clip0_1358_402)">
<path id="Vector" d="M7.10597 0.19873C3.56343 0.19873 0.69165 3.07051 0.69165 6.61305V32.2703C0.69165 35.8129 3.56343 38.6847 7.10597 38.6847H32.7633C36.3058 38.6847 39.1776 35.8129 39.1776 32.2703V6.61305C39.1776 3.07051 36.3058 0.19873 32.7633 0.19873H7.10597ZM9.01738 8.44571H16.2908L21.4559 15.7853L27.7234 8.44571H30.0143L22.4903 17.2547L31.7682 30.4377H24.4966L18.5028 21.9222L11.2295 30.4377H8.93863L17.4684 20.4529L9.01738 8.44571ZM12.5252 10.2784L25.4523 28.605H28.2603L15.3333 10.2784H12.5252Z" fill="#F5F2FF"/>
</g>
<defs>
<clipPath id="clip0_1358_402">
<rect width="38.4861" height="38.4861" fill="white" transform="translate(0.691895 0.199219)"/>
</clipPath>
</defs>
</svg>
