<svg width="41" height="41" viewBox="0 0 41 41" fill="none" xmlns="http://www.w3.org/2000/svg">
<path id="Vector" d="M12.7544 1.19922C6.48512 1.19922 1.38354 6.30079 1.38354 12.5701V28.3144C1.38354 34.5837 6.48512 39.6853 12.7544 39.6853H28.4987C34.768 39.6853 39.8696 34.5837 39.8696 28.3144V12.5701C39.8696 6.30079 34.768 1.19922 28.4987 1.19922H12.7544ZM12.7544 3.38134H28.4987C33.8225 3.38134 38.1202 7.24635 38.1202 12.5701V28.3144C38.1202 33.6381 33.8225 37.4551 28.4987 37.4551H12.7544C7.43068 37.4551 3.4695 33.6381 3.4695 28.3144V12.5701C3.4695 7.24635 7.43068 3.38134 12.7544 3.38134ZM31.1228 8.19668C30.6588 8.19668 30.2139 8.38099 29.8858 8.70906C29.5577 9.03713 29.3734 9.48209 29.3734 9.94605C29.3734 10.41 29.5577 10.855 29.8858 11.183C30.2139 11.5111 30.6588 11.6954 31.1228 11.6954C31.5867 11.6954 32.0317 11.5111 32.3598 11.183C32.6878 10.855 32.8721 10.41 32.8721 9.94605C32.8721 9.48209 32.6878 9.03713 32.3598 8.70906C32.0317 8.38099 31.5867 8.19668 31.1228 8.19668ZM20.6266 10.8207C15.3231 10.8207 11.0051 15.1388 11.0051 20.4422C11.0051 25.7457 15.3231 30.0638 20.6266 30.0638C25.93 30.0638 30.2481 25.7457 30.2481 20.4422C30.2481 15.1388 25.93 10.8207 20.6266 10.8207ZM20.6266 12.5701C24.9846 12.5701 28.4987 16.0842 28.4987 20.4422C28.4987 24.8003 24.9846 28.3144 20.6266 28.3144C16.2685 28.3144 12.7544 24.8003 12.7544 20.4422C12.7544 16.0842 16.2685 12.5701 20.6266 12.5701Z" fill="#F5F2FF" stroke="#F5F2FF" stroke-width="0.916335"/>
</svg>
