<svg width="145" height="28" viewBox="0 0 145 28" fill="none" xmlns="http://www.w3.org/2000/svg">
<path d="M0.0742197 19.4601L3.78459e-06 0.698802C-0.00107019 0.427307 0.226571 0.206666 0.507752 0.206666L9.42512 0.255692C9.70555 0.255692 9.93287 0.475191 9.93287 0.745956V18.7815C9.93287 19.0523 10.1602 19.2718 10.4406 19.2718L11.5938 19.2228C11.8743 19.2228 12.1016 19.0033 12.1016 18.7325V0.745956C12.1016 0.475191 12.3289 0.255692 12.6093 0.255692L15.4119 0.255692C19.6452 0.206666 21.9977 5.95187 21.9977 7.48395L21.6958 19.4631C21.6715 24.302 19.8702 27.0227 15.11 27.0227H6.06569C1.95208 26.9543 0.0742197 24.767 0.0742197 19.4601Z" fill="#F5F2FF"/>
<path fill-rule="evenodd" clip-rule="evenodd" d="M21.2968 0.512999C21.2859 0.242034 21.415 0.324921 21.6958 0.325492L39.7968 0.370587C44.4935 0.370587 47.4004 2.92235 47.4004 9.10546V17.822C47.4004 22.2017 45.9993 26.8591 39.9443 26.8591L28.8238 26.8497C26.4346 26.8424 25.7456 26.2096 25.6552 23.5725L25.7552 7.65166C22.5121 6.25094 21.4092 3.30858 21.2968 0.512999ZM37.9544 8.45382C37.9544 8.18305 37.7271 7.96355 37.4467 7.96355H36.0524C35.7719 7.96355 35.5446 8.18305 35.5446 8.45382V18.8535C35.5446 19.1243 35.7719 19.3438 36.0524 19.3438H37.4467C37.7271 19.3438 37.9544 19.1243 37.9544 18.8535V8.45382Z" fill="#F5F2FF"/>
<path d="M57.9188 0C53.1356 2.38806e-05 49.9265 2.51876 49.9265 8.60164V17.5691C49.9265 21.8363 51.4733 26.9869 57.8847 26.9869H64.2418C67.3334 27.0236 68.9639 25.3867 70.3241 22.8636C70.3865 22.7479 70.5741 22.7896 70.5741 22.9202L70.4983 26.5054C70.4983 26.7761 70.7257 26.9956 71.0061 26.9956H74.9227C75.2031 26.9956 75.4305 26.7761 75.4305 26.5054L75.5045 12.8278C75.5045 12.557 75.2772 12.3375 74.9968 12.3375H61.4395C61.1606 12.3375 60.9339 12.5548 60.9317 12.8241L60.8869 16.9117C60.8848 17.1839 61.1127 17.4057 61.3947 17.4057L65.7965 17.453C65.8666 17.453 65.924 17.5081 65.9192 17.5756C65.8426 18.6533 65.0557 18.8874 62.6997 18.8874H60.7539C59.683 18.8874 58.8142 18.0505 58.8117 17.0165V10.7724C58.8093 9.735 59.6795 8.89279 60.7539 8.89279H66.7489C67.0293 8.89279 67.2567 9.11229 67.2567 9.38305V9.61516C67.2567 9.88593 67.484 10.1054 67.7644 10.1054H74.9763C75.2551 10.1054 75.4819 9.88849 75.4836 9.61934C75.5126 5.11702 75.283 0 69.1404 0H57.9188Z" fill="#F5F2FF"/>
<path fill-rule="evenodd" clip-rule="evenodd" d="M77.6814 26.5125C77.6828 26.7823 77.9097 27.0002 78.1891 27.0002H86.2397C86.5201 27.0002 86.7474 26.7807 86.7474 26.5099V22.4284C86.7474 22.1576 86.9747 21.9381 87.2552 21.9381H89.3116C89.592 21.9381 89.8193 22.1576 89.8193 22.4284V26.5099C89.8193 26.7807 90.0466 27.0002 90.3271 27.0002H98.2353C98.5157 27.0002 98.7431 26.7807 98.7431 26.5099V14.7783C97.9249 6.30635 93.8288 2.63731 89.4558 0.469274C89.1163 0.30095 88.7388 0.219452 88.3572 0.219448L87.9135 0.219443C87.5467 0.219438 87.1834 0.294635 86.8544 0.451004C82.3941 2.57038 78.471 6.19505 77.6206 14.7783L77.6814 26.5125ZM89.8193 17.0789C89.8193 17.3496 89.592 17.5691 89.3116 17.5691H87.2552C86.9747 17.5691 86.7474 17.3496 86.7474 17.0789V13.7633C86.7474 13.4925 86.9747 13.273 87.2552 13.273H89.3116C89.592 13.273 89.8193 13.4925 89.8193 13.7633V17.0789Z" fill="#F5F2FF"/>
<path d="M110.239 27.0002H101.643C101.363 27.0002 101.136 26.7807 101.136 26.51V0.611122C101.136 0.340357 101.363 0.11936 101.643 0.136252C107.635 0.497911 113.807 7.17507 115.386 14.1316C115.416 14.2643 115.629 14.2656 115.66 14.1332C117.346 7.05744 123.315 0.497592 129.202 0.136497C129.482 0.11933 129.709 0.340357 129.709 0.611122V26.51C129.709 26.7807 129.482 27.0002 129.201 27.0002H120.726C120.445 27.0002 120.217 26.7808 120.234 26.5106C120.341 24.8553 120.958 22.9162 121.698 21.5408C121.757 21.4298 121.632 21.3119 121.524 21.3813C119.853 22.4561 118.139 24.56 117.159 26.698C117.075 26.8799 116.891 27.0002 116.685 27.0002H114.193C113.987 27.0002 113.803 26.8797 113.719 26.6976C112.727 24.5252 111.031 22.4534 109.478 21.3756C109.375 21.3043 109.25 21.4098 109.303 21.5208C109.885 22.7408 110.627 24.4914 110.734 26.51C110.748 26.7804 110.519 27.0002 110.239 27.0002Z" fill="#F5F2FF"/>
<path d="M134.891 8.39068C134.001 9.24474 133.793 9.63829 133.914 13.0027C133.921 13.1928 134.078 13.3432 134.269 13.3425L144.419 13.303C144.569 13.3024 144.691 13.1807 144.671 13.0325C144.546 12.0859 143.961 11.037 142.475 10.3587H137.961C137.721 10.3587 137.717 10.3027 137.952 10.2569C139.347 9.98543 140.3 9.68005 140.3 9.68005C140.3 9.68005 143.362 9.1274 143.967 6.52937C144.07 5.94295 144.042 3.59667 144.042 3.59667C143.958 2.91626 143.834 2.56266 143.501 1.95617C143.501 1.95617 142.864 0.891297 142.05 0.534778C141.235 0.178259 140.271 0 139.158 0C138.081 0 137.143 0.189542 136.342 0.568625C135.541 0.947708 134.921 1.48926 134.482 2.19327C134.086 2.82778 134.1 5.3678 134.107 6.57678L134.107 6.61796C134.108 6.76485 134.256 6.86539 134.393 6.81278L138.017 5.42636C138.28 5.32572 138.452 5.0739 138.458 4.79294C138.466 4.34544 138.496 3.78803 138.599 3.59667C138.708 3.37093 138.951 3.08771 139.449 3.08771C139.938 3.08771 140.098 3.26124 140.266 3.59667C140.368 3.80025 140.516 5.76824 140.3 6.34507C140.084 6.92189 135.435 7.98351 134.891 8.39068Z" fill="#F5F2FF"/>
<path fill-rule="evenodd" clip-rule="evenodd" d="M133.144 24.5535C133.46 22.8874 133.751 21.8083 134.642 19.9079C135.165 18.9282 135.558 18.3131 136.185 17.5338C136.645 16.9615 137.648 15.8944 139.196 15.1308C140.087 14.6912 141.867 14.5447 142.364 14.5008C142.491 14.4895 142.597 14.6001 142.598 14.74L142.625 22.0625C142.796 22.0625 142.528 22.0625 142.693 22.0625C142.824 22.0625 142.913 22.0827 143.036 22.1334C144.47 22.7261 144.848 24.1233 144.993 24.7191C145.028 24.8639 144.926 24.9961 144.789 24.9961H142.636L142.642 26.7753C142.643 26.9118 142.542 27.0227 142.417 27.0227H139.623C139.499 27.0227 139.399 26.9135 139.398 26.7781L139.386 24.9961H133.473C133.26 24.9961 133.1 24.782 133.144 24.5535ZM137.29 21.9398C137.363 21.281 138.157 19.8552 139.371 19.105V22.0625C138.509 22.0625 137.65 22.0626 137.393 22.0626C137.331 22.0626 137.282 22.0073 137.29 21.9398Z" fill="#F5F2FF"/>
</svg>
