<svg width="39" height="39" viewBox="0 0 39 39" fill="none" xmlns="http://www.w3.org/2000/svg">
<path id="Vector" d="M33.9044 0.199219H4.58167C2.05259 0.199219 0 2.25181 0 4.78089V34.1036C0 36.6327 2.05259 38.6853 4.58167 38.6853H33.9044C36.4335 38.6853 38.4861 36.6327 38.4861 34.1036V4.78089C38.4861 2.25181 36.4335 0.199219 33.9044 0.199219ZM11.9124 14.8606V32.2709H6.41434V14.8606H11.9124ZM6.41434 9.79324C6.41434 8.51038 7.51394 7.5299 9.16335 7.5299C10.8127 7.5299 11.8482 8.51038 11.9124 9.79324C11.9124 11.0761 10.8861 12.1116 9.16335 12.1116C7.51394 12.1116 6.41434 11.0761 6.41434 9.79324ZM32.0717 32.2709H26.5737C26.5737 32.2709 26.5737 23.7857 26.5737 23.1076C26.5737 21.2749 25.6574 19.4422 23.3665 19.4056H23.2932C21.0757 19.4056 20.1594 21.2932 20.1594 23.1076C20.1594 23.9415 20.1594 32.2709 20.1594 32.2709H14.6614V14.8606H20.1594V17.2064C20.1594 17.2064 21.9279 14.8606 25.4833 14.8606C29.1211 14.8606 32.0717 17.3622 32.0717 22.4295V32.2709Z" fill="#F5F2FF"/>
</svg>
